<svg width="751" height="722" viewBox="0 0 751 722" fill="none" xmlns="http://www.w3.org/2000/svg">
<path fill-rule="evenodd" clip-rule="evenodd" d="M664.843 406.383V509.526H324.679C294.632 509.402 265.813 497.598 244.326 476.613C222.84 455.627 210.375 427.109 209.57 397.1V324.384C209.57 309.306 212.551 294.376 218.342 280.452C224.133 266.528 232.62 253.884 243.316 243.246C254.011 232.608 266.705 224.185 280.667 218.462C294.63 212.739 309.587 209.828 324.679 209.896H665.359C679.049 209.896 692.178 215.329 701.858 225.001C711.539 234.672 716.977 247.79 716.977 261.467C716.977 275.145 711.539 288.262 701.858 297.934C692.178 307.605 679.049 313.039 665.359 313.039H296.805V406.383H664.843ZM324.679 0H682.909C751.608 4.11529 816.257 33.8535 864.054 83.3264C911.851 132.799 939.312 198.4 941 267.14C939.83 320.145 923.512 371.71 893.971 415.754C864.43 459.797 822.897 494.481 774.273 515.714L664.843 406.383C683.853 406.865 702.768 403.539 720.472 396.602C738.176 389.665 754.311 379.257 767.925 365.991C781.54 352.726 792.358 336.871 799.743 319.363C807.127 301.854 810.928 283.045 810.922 264.046C810.243 225.881 794.521 189.525 767.169 162.875C739.818 136.224 703.047 121.431 664.843 121.709H324.679C270.877 121.709 219.279 143.062 181.235 181.071C143.192 219.08 121.819 270.631 121.819 324.384V397.1C121.819 450.853 143.192 502.404 181.235 540.413C219.279 578.422 270.877 599.776 324.679 599.776H665.359V722H324.679C238.521 721.863 155.939 687.573 95.0648 626.657C34.1905 565.741 -0.000108538 483.18 2.58416e-10 397.1L2.5841e-10 324.384C0.136508 238.394 34.3875 155.965 95.2469 95.1606C156.106 34.3563 238.61 0.136384 324.679 0V0Z" fill="#F1F1F5"/>
</svg>
