<svg width="29" height="24" viewBox="0 0 29 24" fill="none" xmlns="http://www.w3.org/2000/svg">
<path d="M8.53193 6.28625H25.7419C26.6986 6.28625 27.4109 7.16994 27.2076 8.10489L24.8958 18.7396C24.7459 19.4291 24.1357 19.921 23.43 19.921H10.0512C9.3047 19.921 8.67182 19.3721 8.56626 18.6331L7.04701 7.99839C6.91792 7.09474 7.61911 6.28625 8.53193 6.28625Z" stroke="#474C54" stroke-linejoin="round"/>
<path d="M12.4979 10.8523C12.4979 12.0189 13.3384 12.9095 14.6179 12.9095C15.9099 12.9095 16.7504 12.0189 16.7504 10.8523C16.7504 9.67316 15.9099 8.7449 14.6179 8.7449C13.3384 8.7449 12.4979 9.67316 12.4979 10.8523ZM14.1921 16.6272C14.0235 16.8912 14.2131 17.2372 14.5263 17.2372V17.2372C14.6615 17.2372 14.7874 17.1683 14.8603 17.0545L19.7042 9.48807C19.8752 9.22094 19.6834 8.87034 19.3662 8.87034V8.87034C19.2292 8.87034 19.1017 8.94021 19.0279 9.05566L14.1921 16.6272ZM15.6089 10.8523C15.6089 11.5046 15.1949 11.9311 14.6179 11.9311C14.0534 11.9311 13.6269 11.5046 13.6269 10.8523C13.6269 10.1498 14.0534 9.73588 14.6179 9.73588C15.1949 9.73588 15.6089 10.1498 15.6089 10.8523ZM17.1016 15.318C17.1016 16.4846 17.9421 17.3878 19.2216 17.3878C20.501 17.3878 21.354 16.4846 21.354 15.318C21.354 14.1388 20.501 13.2106 19.2216 13.2106C17.9421 13.2106 17.1016 14.1388 17.1016 15.318ZM20.2251 15.318C20.2251 15.9954 19.7986 16.4093 19.2216 16.4093C18.6445 16.4093 18.2306 15.9954 18.2306 15.318C18.2306 14.6281 18.6445 14.2016 19.2216 14.2016C19.7986 14.2016 20.2251 14.6281 20.2251 15.318Z" fill="#F58220"/>
<path d="M7.81511 13.2467L6.02302 3.39021C5.85012 2.43923 5.02185 1.74798 4.05528 1.74798L1 1.74798" stroke="#474C54" stroke-linecap="round" stroke-linejoin="round"/>
<circle cx="12.4989" cy="21.5907" r="1.59067" stroke="#474C54"/>
<circle cx="20.9051" cy="21.5907" r="1.59067" stroke="#474C54"/>
</svg>
