<svg width="22" height="24" viewBox="0 0 22 24" fill="none" xmlns="http://www.w3.org/2000/svg">
<rect x="0.5" y="9.625" width="20.0833" height="13.375" rx="1.5" stroke="#474C54" stroke-linejoin="round"/>
<path d="M17.25 9.125V7.20833C17.25 3.50342 14.2466 0.5 10.5417 0.5V0.5C6.83676 0.5 3.83334 3.50342 3.83334 7.20833V9.125" stroke="#474C54"/>
<path d="M14 9.5V7C14 5.067 12.433 3.5 10.5 3.5V3.5C8.567 3.5 7 5.067 7 7V9.5" stroke="#474C54"/>
<path d="M8.625 14.6305C8.625 13.5528 9.49967 12.6781 10.5774 12.6781C11.6551 12.6781 12.5298 13.5528 12.5298 14.6305C12.5298 15.1459 12.3279 15.6113 12 15.9585C11.7568 16.2161 11.5525 16.5299 11.5508 16.8842L11.5405 18.9755C11.5379 19.5127 11.1016 19.9469 10.5643 19.9469V19.9469C10.0233 19.9469 9.5855 19.5069 9.58815 18.9659L9.59835 16.8907C9.60011 16.533 9.39503 16.2147 9.15027 15.9538C8.825 15.6071 8.625 15.1436 8.625 14.6305Z" stroke="#F58220"/>
</svg>
