<svg width="26" height="21" viewBox="0 0 26 21" fill="none" xmlns="http://www.w3.org/2000/svg">
<path d="M18.3947 12.6138C21.2747 13.0312 24.9999 14.3773 24.9999 16.6521V16.6521C24.9999 18.381 23.5984 19.7825 21.8695 19.7825H20.826H18.7391" stroke="#F58220" stroke-linecap="round"/>
<path d="M9.34783 9.34783C11.653 9.34783 13.5217 7.4791 13.5217 5.17391C13.5217 2.86872 11.653 1 9.34783 1C7.04264 1 5.17392 2.86872 5.17392 5.17391C5.17392 7.4791 7.04264 9.34783 9.34783 9.34783Z" stroke="#474C54"/>
<path d="M15.2643 1.25043C15.7025 1.10435 16.1617 1 16.6521 1C18.9582 1 20.826 2.86783 20.826 5.17391C20.826 7.48 18.9582 9.34783 16.6521 9.34783C16.1617 9.34783 15.7025 9.24348 15.2643 9.09739" stroke="#F58220" stroke-linecap="round"/>
<path fill-rule="evenodd" clip-rule="evenodd" d="M9.34783 12.4783C6.56174 12.4783 1 13.8765 1 16.6522V16.6522C1 18.3811 2.40154 19.7826 4.13043 19.7826H14.5652C16.2941 19.7826 17.6957 18.3811 17.6957 16.6522V16.6522C17.6957 13.8765 12.1339 12.4783 9.34783 12.4783Z" stroke="#474C54"/>
</svg>
