<svg width="23" height="24" viewBox="0 0 23 24" fill="none" xmlns="http://www.w3.org/2000/svg">
<mask id="path-1-inside-1_451_351" fill="white">
<path d="M21.0202 14.7863C21.6807 14.5233 22.0109 14.3918 22.2398 14.2109C22.5729 13.9478 22.7955 13.6196 22.9167 13.2128C23 12.9333 23 12.6221 23 11.9997V11.9997C23 11.3774 23 11.0663 22.9167 10.7867C22.7955 10.3801 22.5728 10.0517 22.2399 9.78868C22.011 9.60785 21.681 9.47641 21.0209 9.21353C20.4964 9.00461 20.2577 8.82173 20.0991 8.43883C19.9398 8.05548 19.9793 7.75551 20.2019 7.23762C20.4827 6.5844 20.6231 6.25779 20.6571 5.9688C20.7067 5.54626 20.6319 5.15676 20.4293 4.78268C20.2907 4.52682 20.0711 4.30727 19.632 3.86816V3.86816C19.1939 3.43001 18.9748 3.21093 18.7192 3.0724C18.3452 2.86963 17.957 2.79486 17.5344 2.84417C17.2456 2.87786 16.9179 3.01827 16.2626 3.29908C15.7502 3.51862 15.4441 3.55997 15.0602 3.40087C14.679 3.2425 14.4946 3.00234 14.2866 2.48158C14.022 1.81913 13.8897 1.48791 13.7092 1.25965C13.4453 0.92587 13.118 0.704154 12.7102 0.582913C12.4312 0.5 12.1206 0.5 11.4992 0.5V0.5C10.878 0.5 10.5674 0.5 10.2882 0.583058C9.88082 0.704283 9.55206 0.927235 9.2887 1.2609C9.10827 1.4895 8.97695 1.81926 8.71433 2.47876C8.50577 3.00249 8.3224 3.24198 7.93883 3.40087C7.54797 3.56356 7.24196 3.52159 6.7349 3.30248C6.08378 3.02112 5.75821 2.88044 5.46868 2.84601C5.04649 2.79581 4.6549 2.87062 4.28095 3.0729C4.02449 3.21163 3.80583 3.4303 3.36849 3.86763V3.86763C2.9292 4.30693 2.70955 4.52658 2.57093 4.78252C2.36837 5.15654 2.29363 5.5456 2.3432 5.96805C2.37712 6.25713 2.51764 6.58415 2.79868 7.23818C3.02104 7.75568 3.06017 8.05548 2.90087 8.43979C2.74196 8.82234 2.50301 9.00553 1.97937 9.21417C1.31929 9.47716 0.989246 9.60865 0.760705 9.78908C0.42698 10.0525 0.204263 10.381 0.0830255 10.7886C0 11.0677 0 11.3784 0 11.9998V11.9998C0 12.6211 0 12.9317 0.0829223 13.2106C0.204149 13.6184 0.42607 13.946 0.759819 14.2098C0.988113 14.3902 1.31904 14.5223 1.9809 14.7866C2.5023 14.9948 2.74239 15.1791 2.90087 15.5612C3.06066 15.947 3.02182 16.246 2.79953 16.7625C2.51847 17.4155 2.37793 17.742 2.34382 18.0309C2.29388 18.4538 2.36866 18.8438 2.57151 19.2182C2.71009 19.474 2.92951 19.6934 3.36835 20.1322V20.1322C3.80474 20.5686 4.02294 20.7868 4.27877 20.9254C4.65308 21.1282 5.0434 21.203 5.46615 21.153C5.7551 21.1189 6.08166 20.9783 6.73479 20.6971C7.23898 20.48 7.5496 20.4368 7.93883 20.5991C8.32212 20.7581 8.50525 20.997 8.71402 21.5211C8.97682 22.1808 9.10822 22.5107 9.28872 22.7393C9.55207 23.0729 9.88065 23.2957 10.288 23.4169C10.5672 23.5 10.8779 23.5 11.4994 23.5V23.5C12.1199 23.5 12.4302 23.5 12.7089 23.4172C13.1165 23.2962 13.443 23.0754 13.707 22.7421C13.8876 22.5143 14.0205 22.1829 14.2864 21.52C14.4952 20.9994 14.6822 20.7567 15.0688 20.5953C15.4567 20.4349 15.7587 20.4768 16.2654 20.6966C16.9144 20.978 17.2389 21.1187 17.5287 21.1535C17.9508 21.2041 18.3439 21.1293 18.7179 20.9271C18.9746 20.7883 19.1935 20.5694 19.6313 20.1316V20.1316C20.0705 19.6925 20.29 19.4729 20.4286 19.217C20.6313 18.843 20.706 18.4543 20.6565 18.0318C20.6227 17.7428 20.4821 17.4154 20.201 16.7607C19.9794 16.2445 19.9401 15.9439 20.0991 15.5602C20.2571 15.178 20.4959 14.9951 21.0202 14.7863Z"/>
</mask>
<path d="M20.0991 8.43883L21.0231 8.05629L21.0225 8.05503L20.0991 8.43883ZM15.0602 3.40087L14.6766 4.32436L14.6774 4.32469L15.0602 3.40087ZM7.93883 3.40087L7.55611 2.47701L7.55457 2.47765L7.93883 3.40087ZM2.90087 8.43979L3.82436 8.82341L3.82466 8.8227L2.90087 8.43979ZM2.90087 15.5612L3.82477 15.1785L3.82455 15.178L2.90087 15.5612ZM7.93883 20.5991L7.55396 21.5221L7.55566 21.5228L7.93883 20.5991ZM15.0688 20.5953L14.6868 19.6712L14.6837 19.6724L15.0688 20.5953ZM20.0991 15.5602L21.0229 15.9431L21.0233 15.9421L20.0991 15.5602ZM20.4286 19.217L21.3079 19.6934L20.4286 19.217ZM20.6565 18.0318L21.6497 17.9155L20.6565 18.0318ZM16.2654 20.6966L15.8675 21.614L16.2654 20.6966ZM17.5287 21.1535L17.4096 22.1464L17.5287 21.1535ZM18.7179 20.9271L18.2423 20.0474L18.7179 20.9271ZM12.7089 23.4172L12.9936 24.3759L12.7089 23.4172ZM13.707 22.7421L12.9233 22.1211L13.707 22.7421ZM9.28872 22.7393L10.0736 22.1197L9.28872 22.7393ZM10.288 23.4169L10.0027 24.3754L10.288 23.4169ZM4.27877 20.9254L3.80245 21.8047L4.27877 20.9254ZM6.73479 20.6971L6.33933 19.7786L6.73479 20.6971ZM5.46615 21.153L5.58352 22.1461L5.46615 21.153ZM1.9809 14.7866L1.61008 15.7153L1.9809 14.7866ZM0.759819 14.2098L0.139728 14.9943L0.759819 14.2098ZM2.57093 4.78252L1.69161 4.30629L2.57093 4.78252ZM2.79868 7.23818L1.8799 7.63297L2.79868 7.23818ZM2.3432 5.96805L1.35002 6.08459L2.3432 5.96805ZM5.46868 2.84601L5.58675 1.853L5.46868 2.84601ZM4.28095 3.0729L4.75674 3.95246L4.28095 3.0729ZM10.2882 0.583058L10.5734 1.54153L10.2882 0.583058ZM8.71433 2.47876L7.78528 2.1088L8.71433 2.47876ZM2.79953 16.7625L1.881 16.3671L2.79953 16.7625ZM2.34382 18.0309L1.35072 17.9137L2.34382 18.0309ZM2.57151 19.2182L3.45076 18.7418L2.57151 19.2182ZM18.7192 3.0724L19.1958 2.19325L18.7192 3.0724ZM16.2626 3.29908L15.8687 2.37991L16.2626 3.29908ZM17.5344 2.84417L17.6503 3.83743L17.5344 2.84417ZM20.2019 7.23762L21.1206 7.63254L20.2019 7.23762ZM20.6571 5.9688L21.6502 6.08556L20.6571 5.9688ZM20.4293 4.78268L21.3086 4.30637L20.4293 4.78268ZM14.2866 2.48158L13.3579 2.85252L14.2866 2.48158ZM13.7092 1.25965L14.4937 0.639474L13.7092 1.25965ZM12.7102 0.582913L12.9951 -0.375631L12.7102 0.582913ZM1.97937 9.21417L1.60924 8.28518L1.97937 9.21417ZM0.0830255 10.7886L-0.875462 10.5034L0.0830255 10.7886ZM22.9167 10.7867L23.875 10.5011L22.9167 10.7867ZM22.2399 9.78868L22.8598 9.00402L22.2399 9.78868ZM22.9167 13.2128L23.875 13.4985L22.9167 13.2128ZM22.2398 14.2109L22.8597 14.9956L22.2398 14.2109ZM21.3909 8.2845C21.1603 8.19264 21.0839 8.1405 21.0592 8.1201C21.0518 8.11403 21.0513 8.11257 21.0509 8.11204C21.0494 8.10994 21.0393 8.09554 21.0231 8.0563L19.1752 8.82137C19.3072 9.14031 19.4967 9.42375 19.7863 9.66275C20.0517 9.88175 20.357 10.0255 20.6509 10.1426L21.3909 8.2845ZM21.0225 8.05503C21.0063 8.01593 21.0032 7.99847 21.0027 7.99565C21.0025 7.99466 21.0019 7.99285 21.0028 7.98301C21.0059 7.95069 21.023 7.85961 21.1206 7.63254L19.2832 6.8427C19.1582 7.13352 19.0442 7.45137 19.0117 7.79435C18.9763 8.16817 19.0429 8.50308 19.1757 8.82264L21.0225 8.05503ZM15.8687 2.37991C15.6459 2.4754 15.5536 2.49313 15.5188 2.49644C15.5073 2.49753 15.5039 2.49682 15.5019 2.49648C15.4982 2.49587 15.4808 2.49269 15.443 2.47706L14.6774 4.32469C14.9999 4.45835 15.336 4.52276 15.7077 4.48749C16.05 4.45501 16.3669 4.3423 16.6564 4.21825L15.8687 2.37991ZM15.4438 2.47738C15.4054 2.46143 15.3911 2.45141 15.3887 2.44971C15.3877 2.44904 15.3858 2.44801 15.3793 2.44015C15.3584 2.41485 15.3062 2.33832 15.2152 2.11065L13.3579 2.85252C13.475 3.1456 13.6189 3.44953 13.8375 3.71409C14.0755 4.00214 14.3579 4.19197 14.6766 4.32436L15.4438 2.47738ZM7.78528 2.1088C7.69371 2.33875 7.64157 2.41513 7.62101 2.44003C7.61481 2.44754 7.61316 2.44832 7.61237 2.44888C7.61005 2.45053 7.59544 2.46072 7.55611 2.47701L8.32156 4.32474C8.64088 4.19245 8.92442 4.00274 9.1634 3.71323C9.38257 3.44773 9.52639 3.1425 9.64338 2.84872L7.78528 2.1088ZM7.55457 2.47765C7.51422 2.49444 7.4949 2.49818 7.49005 2.499C7.48693 2.49953 7.48354 2.50012 7.47301 2.49914C7.44043 2.49611 7.35116 2.4794 7.13156 2.38451L6.33823 4.22044C6.6257 4.34466 6.94297 4.45849 7.28788 4.49056C7.66157 4.5253 7.99934 4.45885 8.3231 4.3241L7.55457 2.47765ZM1.8799 7.63297C1.97728 7.85959 1.99427 7.95043 1.9973 7.98265C1.99823 7.99251 1.99761 7.99455 1.99738 7.99596C1.99682 7.99923 1.99354 8.01719 1.97709 8.05688L3.82466 8.8227C3.95696 8.50352 4.02367 8.16892 3.9885 7.79521C3.9562 7.45208 3.84243 7.13426 3.71745 6.84339L1.8799 7.63297ZM1.97739 8.05617C1.96109 8.0954 1.95092 8.10995 1.94928 8.11226C1.94873 8.11303 1.94796 8.11468 1.94044 8.12089C1.91553 8.14144 1.83914 8.19359 1.60924 8.28518L2.34949 10.1431C2.64324 10.0261 2.94814 9.88235 3.21335 9.66351C3.50254 9.42488 3.69206 9.14192 3.82436 8.82341L1.97739 8.05617ZM1.61008 15.7153C1.83818 15.8064 1.91466 15.8586 1.93987 15.8795C1.94767 15.8859 1.94867 15.8878 1.94934 15.8888C1.95107 15.8912 1.96115 15.9057 1.9772 15.9443L3.82455 15.178C3.69223 14.859 3.50246 14.5763 3.21409 14.3379C2.94928 14.119 2.64502 13.975 2.35172 13.8579L1.61008 15.7153ZM1.97698 15.9438C1.99378 15.9844 1.99723 16.0029 1.99784 16.0065C1.99813 16.0082 1.99871 16.0103 1.99782 16.0198C1.99488 16.0512 1.97825 16.1412 1.881 16.3671L3.71807 17.1578C3.84311 16.8673 3.95704 16.5495 3.98915 16.2058C4.02409 15.8318 3.9568 15.4973 3.82477 15.1785L1.97698 15.9438ZM7.13025 21.6156C7.34748 21.522 7.43811 21.5047 7.4727 21.5015C7.48444 21.5004 7.48864 21.5011 7.49199 21.5017C7.49686 21.5025 7.51547 21.506 7.55396 21.5221L8.32371 19.6762C7.99792 19.5403 7.65926 19.4755 7.28714 19.5101C6.94307 19.5422 6.62629 19.655 6.33933 19.7786L7.13025 21.6156ZM7.55566 21.5228C7.59515 21.5392 7.60983 21.5494 7.61217 21.5511C7.61295 21.5516 7.61456 21.5524 7.62071 21.5598C7.64118 21.5846 7.69331 21.6609 7.78501 21.8911L9.64304 21.151C9.52597 20.8571 9.38214 20.552 9.16303 20.2865C8.92406 19.9971 8.64072 19.8077 8.32201 19.6754L7.55566 21.5228ZM15.2145 21.8922C15.3054 21.6656 15.3582 21.5884 15.3802 21.5618C15.3875 21.5531 15.3906 21.5508 15.3933 21.5489C15.3974 21.546 15.4136 21.535 15.454 21.5181L14.6837 19.6724C14.3639 19.8059 14.0806 19.9962 13.8416 20.284C13.6213 20.5493 13.4762 20.8537 13.3582 21.1477L15.2145 21.8922ZM15.4509 21.5194C15.4908 21.5029 15.5093 21.4995 15.5132 21.4988C15.5153 21.4985 15.5177 21.4979 15.5274 21.4989C15.5587 21.5018 15.6471 21.5184 15.8675 21.614L16.6632 19.7791C16.3769 19.655 16.061 19.5407 15.7177 19.5079C15.3449 19.4723 15.0087 19.5381 14.6868 19.6712L15.4509 21.5194ZM21.1199 16.3662C21.023 16.1405 21.006 16.0496 21.0029 16.0171C21.002 16.007 21.0026 16.0048 21.0029 16.0034C21.0034 16.0001 21.0066 15.9824 21.0229 15.9431L19.1753 15.1773C19.0429 15.4967 18.9766 15.8313 19.0117 16.2044C19.044 16.5472 19.1574 16.8647 19.2821 17.1552L21.1199 16.3662ZM21.0233 15.9421C21.0394 15.9033 21.0493 15.8892 21.0506 15.8874C21.0508 15.8871 21.0513 15.8857 21.0586 15.8796C21.0833 15.8593 21.1597 15.8071 21.3902 15.7153L20.6503 13.8572C20.3565 13.9742 20.0513 14.118 19.786 14.3368C19.4964 14.5757 19.3068 14.8591 19.1749 15.1783L21.0233 15.9421ZM20.3384 20.8387C20.7336 20.4435 21.0835 20.1076 21.3079 19.6934L19.5493 18.7407C19.4965 18.8382 19.4073 18.9414 18.9242 19.4245L20.3384 20.8387ZM19.2821 17.1552C19.5928 17.8788 19.6507 18.0408 19.6633 18.1481L21.6497 17.9155C21.5946 17.4448 21.3714 16.952 21.1199 16.3662L19.2821 17.1552ZM21.3079 19.6934C21.6086 19.1382 21.7231 18.5426 21.6497 17.9155L19.6633 18.1481C19.6888 18.3661 19.6539 18.5478 19.5493 18.7407L21.3079 19.6934ZM15.8675 21.614C16.4484 21.8659 16.9378 22.0898 17.4096 22.1464L17.6477 20.1606C17.5399 20.1477 17.3804 20.0901 16.6632 19.7791L15.8675 21.614ZM18.9242 19.4245C18.4428 19.9059 18.3403 19.9944 18.2423 20.0474L19.1934 21.8068C19.609 21.5821 19.9443 21.2329 20.3384 20.8387L18.9242 19.4245ZM17.4096 22.1464C18.0369 22.2216 18.6376 22.1072 19.1934 21.8068L18.2423 20.0474C18.0501 20.1513 17.8647 20.1866 17.6477 20.1606L17.4096 22.1464ZM11.4994 24.5C12.0579 24.5 12.5424 24.5098 12.9936 24.3759L12.4242 22.4586C12.318 22.4902 12.182 22.5 11.4994 22.5V24.5ZM13.3582 21.1477C13.0644 21.8804 12.9903 22.0365 12.9233 22.1211L14.4908 23.3632C14.7849 22.9921 14.9766 22.4853 15.2145 21.8922L13.3582 21.1477ZM12.9936 24.3759C13.5982 24.1963 14.099 23.8576 14.4908 23.3632L12.9233 22.1211C12.7869 22.2932 12.6347 22.3961 12.4242 22.4586L12.9936 24.3759ZM7.78501 21.8911C8.02018 22.4815 8.20993 22.9867 8.50386 23.359L10.0736 22.1197C10.0065 22.0347 9.93346 21.8802 9.64304 21.151L7.78501 21.8911ZM11.4994 22.5C10.8157 22.5 10.6796 22.4901 10.5732 22.4585L10.0027 24.3754C10.4547 24.5099 10.9401 24.5 11.4994 24.5V22.5ZM8.50386 23.359C8.89487 23.8543 9.39795 24.1954 10.0027 24.3754L10.5732 22.4585C10.3634 22.396 10.2093 22.2915 10.0736 22.1197L8.50386 23.359ZM2.66124 20.8393C3.05413 21.2322 3.38839 21.5804 3.80245 21.8047L4.7551 20.0461C4.6575 19.9933 4.55536 19.905 4.07545 19.4251L2.66124 20.8393ZM6.33933 19.7786C5.6175 20.0894 5.45612 20.1473 5.34879 20.16L5.58352 22.1461C6.05408 22.0905 6.54583 21.8672 7.13025 21.6156L6.33933 19.7786ZM3.80245 21.8047C4.35817 22.1057 4.95587 22.2203 5.58352 22.1461L5.34879 20.16C5.13093 20.1857 4.94798 20.1506 4.7551 20.0461L3.80245 21.8047ZM-1 11.9998C-1 12.5589 -1.00987 13.044 -0.875617 13.4956L1.04146 12.9257C1.00987 12.8194 1 12.6832 1 11.9998H-1ZM2.35172 13.8579C1.62021 13.5658 1.46468 13.4922 1.37991 13.4252L0.139728 14.9943C0.511543 15.2882 1.01788 15.4789 1.61008 15.7153L2.35172 13.8579ZM-0.875617 13.4956C-0.695706 14.1008 -0.355586 14.6028 0.139728 14.9943L1.37991 13.4252C1.20773 13.2891 1.104 13.136 1.04146 12.9257L-0.875617 13.4956ZM2.66139 3.16052C2.26604 3.55587 1.91603 3.89192 1.69161 4.30629L3.45025 5.25875C3.50307 5.16123 3.59235 5.05799 4.0756 4.57474L2.66139 3.16052ZM3.71745 6.84339C3.40684 6.12055 3.34899 5.95888 3.33639 5.85151L1.35002 6.08459C1.40526 6.55538 1.62844 7.04775 1.8799 7.63297L3.71745 6.84339ZM1.69161 4.30629C1.39094 4.86146 1.27644 5.45753 1.35002 6.08459L3.33639 5.85151C3.31083 5.63366 3.34579 5.45163 3.45025 5.25875L1.69161 4.30629ZM7.13156 2.38451C6.54887 2.13272 6.05818 1.90906 5.58675 1.853L5.35061 3.83901C5.45824 3.85181 5.61868 3.90951 6.33823 4.22044L7.13156 2.38451ZM4.0756 4.57474C4.55654 4.0938 4.65891 4.00538 4.75674 3.95246L3.80516 2.19334C3.39008 2.41788 3.05511 2.7668 2.66139 3.16052L4.0756 4.57474ZM5.58675 1.853C4.95965 1.77844 4.36062 1.89287 3.80516 2.19334L4.75674 3.95246C4.94919 3.84836 5.13334 3.81318 5.35061 3.83901L5.58675 1.853ZM11.4992 -0.5C10.9401 -0.5 10.455 -0.509879 10.003 -0.375413L10.5734 1.54153C10.6798 1.50988 10.8158 1.5 11.4992 1.5V-0.5ZM9.64338 2.84872C9.93361 2.11988 10.0066 1.96541 10.0737 1.88045L8.50375 0.641344C8.20993 1.0136 8.0203 1.51863 7.78528 2.1088L9.64338 2.84872ZM10.003 -0.375413C9.3981 -0.195413 8.89478 0.14591 8.50375 0.641344L10.0737 1.88045C10.2093 1.70856 10.3635 1.60398 10.5734 1.54153L10.003 -0.375413ZM1.881 16.3671C1.6295 16.9515 1.40628 17.4432 1.35072 17.9137L3.33692 18.1482C3.34959 18.0409 3.40744 17.8795 3.71807 17.1578L1.881 16.3671ZM4.07545 19.4251C3.59272 18.9424 3.50357 18.8393 3.45076 18.7418L1.69225 19.6945C1.91661 20.1086 2.26629 20.4444 2.66124 20.8393L4.07545 19.4251ZM1.35072 17.9137C1.27659 18.5414 1.39114 19.1387 1.69225 19.6945L3.45076 18.7418C3.34619 18.5488 3.31117 18.3662 3.33692 18.1482L1.35072 17.9137ZM20.3391 3.16105C19.9448 2.7667 19.6095 2.41752 19.1958 2.19325L18.2427 3.95155C18.3401 4.00434 18.443 4.09331 18.9249 4.57527L20.3391 3.16105ZM16.6564 4.21825C17.3808 3.90788 17.5431 3.84994 17.6503 3.83743L17.4185 1.85091C16.9482 1.90578 16.4551 2.12865 15.8687 2.37991L16.6564 4.21825ZM19.1958 2.19325C18.6407 1.89236 18.0456 1.77774 17.4185 1.85091L17.6503 3.83743C17.8684 3.81198 18.0496 3.8469 18.2427 3.95155L19.1958 2.19325ZM21.1206 7.63254C21.3719 7.04803 21.5949 6.55619 21.6502 6.08556L19.6639 5.85204C19.6513 5.95939 19.5935 6.12077 19.2832 6.8427L21.1206 7.63254ZM18.9249 4.57527C19.408 5.0583 19.4972 5.16149 19.55 5.25898L21.3086 4.30637C21.0842 3.89215 20.7343 3.55623 20.3391 3.16105L18.9249 4.57527ZM21.6502 6.08556C21.724 5.45832 21.6094 4.86169 21.3086 4.30637L19.55 5.25898C19.6545 5.45184 19.6895 5.6342 19.6639 5.85204L21.6502 6.08556ZM15.2152 2.11065C14.9785 1.51793 14.7876 1.01125 14.4937 0.639474L12.9247 1.87982C12.9917 1.96457 13.0654 2.12034 13.3579 2.85252L15.2152 2.11065ZM11.4992 1.5C12.1827 1.5 12.319 1.50987 12.4252 1.54146L12.9951 -0.375631C12.5435 -0.509869 12.0584 -0.5 11.4992 -0.5V1.5ZM14.4937 0.639474C14.1021 0.144168 13.6003 -0.195718 12.9951 -0.375631L12.4252 1.54146C12.6357 1.60402 12.7886 1.70757 12.9247 1.87982L14.4937 0.639474ZM1.60924 8.28518C1.01857 8.52052 0.513223 8.71038 0.141058 9.0042L1.38035 10.574C1.46527 10.5069 1.62 10.4338 2.34949 10.1431L1.60924 8.28518ZM1 11.9998C1 11.3162 1.00988 11.18 1.04151 11.0737L-0.875462 10.5034C-1.00988 10.9553 -1 11.4405 -1 11.9998H1ZM0.141058 9.0042C-0.354407 9.39536 -0.695467 9.89838 -0.875462 10.5034L1.04151 11.0737C1.10399 10.8637 1.20837 10.7097 1.38035 10.574L0.141058 9.0042ZM24 11.9997C24 11.4397 24.0099 10.9537 23.875 10.5011L21.9583 11.0724C21.9901 11.1789 22 11.3152 22 11.9997H24ZM20.6509 10.1426C21.3804 10.4331 21.5349 10.5061 21.6199 10.5733L22.8598 9.00402C22.4871 8.70957 21.9816 8.51974 21.3909 8.2845L20.6509 10.1426ZM23.875 10.5011C23.6951 9.89726 23.3542 9.39466 22.8598 9.00402L21.6199 10.5733C21.7914 10.7088 21.8959 10.8629 21.9583 11.0724L23.875 10.5011ZM22 11.9997C22 12.6844 21.9901 12.8207 21.9583 12.9272L23.875 13.4985C24.0099 13.0459 24 12.5598 24 11.9997H22ZM21.3902 15.7153C21.9812 15.48 22.487 15.2901 22.8597 14.9956L21.6199 13.4263C21.5349 13.4935 21.3802 13.5666 20.6503 13.8572L21.3902 15.7153ZM21.9583 12.9272C21.8959 13.1368 21.7915 13.2907 21.6199 13.4263L22.8597 14.9956C23.3543 14.6049 23.695 14.1024 23.875 13.4985L21.9583 12.9272Z" fill="#474C54" mask="url(#path-1-inside-1_451_351)"/>
<circle cx="11.5" cy="12" r="2.95" stroke="#F58220"/>
</svg>
