<svg width="24" height="24" viewBox="0 0 24 24" fill="none" xmlns="http://www.w3.org/2000/svg">
<path d="M2.95403 4.15881L20.9088 4.15881C22.0134 4.15881 22.9088 5.05424 22.9088 6.15881L22.9088 17.8408C22.9088 18.9453 22.0134 19.8408 20.9088 19.8408L2.95403 19.8408C1.84947 19.8408 0.954035 18.9453 0.954035 17.8408L0.954035 6.15881C0.954035 5.05424 1.84946 4.15881 2.95403 4.15881Z" stroke="#474C54" stroke-linecap="round"/>
<path d="M19.2485 7.81815L14.4194 12.6473C13.4128 13.6539 12.9095 14.1572 12.3051 14.2725C12.0575 14.3197 11.8032 14.3197 11.5556 14.2725C10.9512 14.1572 10.4479 13.6539 9.44136 12.6473L4.61222 7.81815" stroke="#F58220" stroke-linecap="round"/>
<path d="M4.61298 16.1822L8.79465 12.0005M19.2493 16.1822L15.0676 12.0005" stroke="#F58220" stroke-linecap="round"/>
</svg>
