<svg width="45" height="46" viewBox="0 0 45 46" fill="none" xmlns="http://www.w3.org/2000/svg">
<path d="M23.8617 31.4167C23.8617 32.0149 23.1343 32.4999 22.2369 32.4999C21.3395 32.4999 20.6121 32.0149 20.6121 31.4167" stroke="#F58220" stroke-linecap="round" stroke-linejoin="round"/>
<path d="M23.9191 13.838C23.9152 14.4183 23.8485 14.7406 23.7714 14.9142C23.7098 15.0529 23.6543 15.076 23.5977 15.0912C23.492 15.1196 23.3324 15.1164 23.0454 15.0826C23.0018 15.0774 22.9554 15.0716 22.9068 15.0655C22.6695 15.0358 22.3777 14.9992 22.0778 14.9992C21.7783 14.9992 21.4862 15.0357 21.2482 15.0654C21.1991 15.0715 21.1523 15.0774 21.1082 15.0825C20.82 15.1164 20.6585 15.1197 20.5513 15.0911C20.4933 15.0756 20.4384 15.0523 20.3779 14.9153C20.3018 14.7427 20.2365 14.4214 20.2365 13.8413C20.2365 12.8244 21.0609 12 22.0778 12C23.0978 12 23.9258 12.8267 23.9191 13.838Z" stroke="#474C54"/>
<path d="M29.1016 25.1145L28.6075 25.1905C28.6132 25.2281 28.6233 25.2649 28.6374 25.3002L29.1016 25.1145ZM15.0539 25.1145L15.5182 25.3002C15.5323 25.2649 15.5423 25.2281 15.5481 25.1905L15.0539 25.1145ZM28.3715 20.3684L28.8657 20.2924L28.3715 20.3684ZM15.7841 20.3684L15.2899 20.2924L15.7841 20.3684ZM14.4281 29.1899L14.5171 28.6978L14.4281 29.1899ZM13.8452 28.1364L13.3809 27.9507L13.8452 28.1364ZM30.3054 28.124L30.7697 27.9383L30.3054 28.124ZM29.7121 29.1803L29.6288 28.6873L29.7121 29.1803ZM27.8773 20.4444L28.6075 25.1905L29.5958 25.0385L28.8657 20.2924L27.8773 20.4444ZM15.5481 25.1905L16.2783 20.4444L15.2899 20.2924L14.5597 25.0385L15.5481 25.1905ZM22.0778 15.4689C24.9739 15.4689 27.4369 17.582 27.8773 20.4444L28.8657 20.2924C28.3502 16.9421 25.4675 14.4689 22.0778 14.4689V15.4689ZM22.0778 14.4689C18.6881 14.4689 15.8053 16.9421 15.2899 20.2924L16.2783 20.4444C16.7186 17.582 19.1816 15.4689 22.0778 15.4689V14.4689ZM28.6374 25.3002L29.8412 28.3097L30.7697 27.9383L29.5659 24.9288L28.6374 25.3002ZM29.6288 28.6873C23.3727 29.7439 20.4962 29.7788 14.5171 28.6978L14.3392 29.6819C20.4429 30.7854 23.4365 30.7473 29.7953 29.6733L29.6288 28.6873ZM14.3094 28.3221L15.5182 25.3002L14.5897 24.9288L13.3809 27.9507L14.3094 28.3221ZM14.5171 28.6978C14.3455 28.6668 14.2443 28.4848 14.3094 28.3221L13.3809 27.9507C13.0812 28.7001 13.544 29.5381 14.3392 29.6819L14.5171 28.6978ZM29.8412 28.3097C29.9067 28.4735 29.8036 28.6578 29.6288 28.6873L29.7953 29.6733C30.5978 29.5378 31.0723 28.6948 30.7697 27.9383L29.8412 28.3097Z" fill="#474C54"/>
</svg>
