<svg width="18" height="22" viewBox="0 0 18 22" fill="none" xmlns="http://www.w3.org/2000/svg">
<path d="M10.8617 20.4167C10.8617 21.0149 10.1343 21.4999 9.23691 21.4999C8.33955 21.4999 7.61209 21.0149 7.61209 20.4167" stroke="#F58220" stroke-linecap="round" stroke-linejoin="round"/>
<path d="M10.9191 2.83797C10.9152 3.41833 10.8485 3.74057 10.7714 3.91421C10.7098 4.05294 10.6543 4.07602 10.5977 4.09121C10.492 4.1196 10.3324 4.11639 10.0454 4.08256C10.0018 4.07742 9.95542 4.07161 9.90678 4.06552C9.66951 4.03579 9.37773 3.99923 9.0778 3.99923C8.77832 3.99923 8.48618 4.03569 8.24817 4.06539C8.19907 4.07152 8.15227 4.07736 8.10819 4.08253C7.82 4.11635 7.65852 4.1197 7.55132 4.09106C7.49335 4.07557 7.4384 4.05228 7.37792 3.91528C7.30177 3.74273 7.23651 3.42141 7.23651 2.84129C7.23651 1.82437 8.06088 1 9.0778 1C10.0978 1 10.9258 1.82669 10.9191 2.83797Z" stroke="#474C54"/>
<path d="M16.1016 14.1145L15.6075 14.1905C15.6132 14.2281 15.6233 14.2649 15.6374 14.3002L16.1016 14.1145ZM2.05391 14.1145L2.51815 14.3002C2.53227 14.2649 2.54232 14.2281 2.5481 14.1905L2.05391 14.1145ZM15.3715 9.36841L15.8657 9.29238L15.3715 9.36841ZM2.78408 9.36841L2.2899 9.29238L2.78408 9.36841ZM1.42811 18.1899L1.51707 17.6978L1.42811 18.1899ZM0.845173 17.1364L0.380935 16.9507L0.845173 17.1364ZM17.3054 17.124L17.7697 16.9383L17.3054 17.124ZM16.7121 18.1803L16.6288 17.6873L16.7121 18.1803ZM14.8773 9.44444L15.6075 14.1905L16.5958 14.0385L15.8657 9.29238L14.8773 9.44444ZM2.5481 14.1905L3.27827 9.44444L2.2899 9.29238L1.55973 14.0385L2.5481 14.1905ZM9.07778 4.46893C11.9739 4.46893 14.4369 6.58197 14.8773 9.44444L15.8657 9.29238C15.3502 5.94208 12.4675 3.46893 9.07778 3.46893V4.46893ZM9.07778 3.46893C5.68806 3.46893 2.80533 5.94208 2.2899 9.29238L3.27827 9.44444C3.71865 6.58197 6.18163 4.46893 9.07778 4.46893V3.46893ZM15.6374 14.3002L16.8412 17.3097L17.7697 16.9383L16.5659 13.9288L15.6374 14.3002ZM16.6288 17.6873C10.3727 18.7439 7.49619 18.7788 1.51707 17.6978L1.33916 18.6819C7.44292 19.7854 10.4365 19.7473 16.7953 18.6733L16.6288 17.6873ZM1.30941 17.3221L2.51815 14.3002L1.58968 13.9288L0.380935 16.9507L1.30941 17.3221ZM1.51707 17.6978C1.34547 17.6668 1.24432 17.4848 1.30941 17.3221L0.380935 16.9507C0.0811636 17.7001 0.543993 18.5381 1.33916 18.6819L1.51707 17.6978ZM16.8412 17.3097C16.9067 17.4735 16.8036 17.6578 16.6288 17.6873L16.7953 18.6733C17.5978 18.5378 18.0723 17.6948 17.7697 16.9383L16.8412 17.3097Z" fill="#474C54"/>
</svg>
