<svg width="21" height="19" viewBox="0 0 21 19" fill="none" xmlns="http://www.w3.org/2000/svg">
<path d="M8 9C7.72386 9 7.5 9.22386 7.5 9.5C7.5 9.77614 7.72386 10 8 10L8 9ZM19.6265 10C19.9026 10 20.1265 9.77614 20.1265 9.5C20.1265 9.22386 19.9026 9 19.6265 9L19.6265 10ZM16.2779 12.6537C16.0866 12.8528 16.093 13.1693 16.2922 13.3606C16.4913 13.5519 16.8078 13.5455 16.9991 13.3463L16.2779 12.6537ZM20 9.5L20.3606 9.84635C20.5465 9.65284 20.5465 9.34716 20.3606 9.15365L20 9.5ZM16.9991 5.65365C16.8078 5.45449 16.4913 5.4481 16.2922 5.63938C16.093 5.83066 16.0866 6.14718 16.2779 6.34635L16.9991 5.65365ZM8 10L19.6265 10L19.6265 9L8 9L8 10ZM16.9991 13.3463L20.3606 9.84635L19.6394 9.15365L16.2779 12.6537L16.9991 13.3463ZM20.3606 9.15365L16.9991 5.65365L16.2779 6.34635L19.6394 9.84635L20.3606 9.15365Z" fill="#F58220"/>
<path d="M13 4.46532C13 3.94655 13 3.44855 13 2.99982C13 1.89525 12.1046 1 11 1L3 1C1.89543 1 1 1.89543 1 3L1 16C1 17.1046 1.89543 18 3 18L11 18C12.1046 18 13 17.1046 13 16L13 14.5347" stroke="#474C54" stroke-linecap="round"/>
</svg>
