<svg width="19" height="12" viewBox="0 0 19 12" fill="none" xmlns="http://www.w3.org/2000/svg">
<path d="M12.069 10.7179H6.9301V1.2836H12.069V10.7179Z" fill="#FF5F00"/>
<path d="M7.25927 5.99998C7.25927 4.08619 8.13643 2.38144 9.5024 1.28284C8.5035 0.47948 7.24284 -1.53134e-05 5.87276 -1.53134e-05C2.62924 -1.53134e-05 0 2.68623 0 5.99998C0 9.31374 2.62924 12 5.87276 12C7.24284 12 8.5035 11.5205 9.5024 10.7171C8.13643 9.61852 7.25927 7.91377 7.25927 5.99998Z" fill="#EB001B"/>
<path d="M18.9996 5.99998C18.9996 9.31374 16.3704 12 13.1268 12C11.7568 12 10.4961 11.5205 9.49684 10.7171C10.8632 9.61852 11.7403 7.91377 11.7403 5.99998C11.7403 4.08619 10.8632 2.38144 9.49684 1.28284C10.4961 0.47948 11.7568 -1.53134e-05 13.1268 -1.53134e-05C16.3704 -1.53134e-05 18.9996 2.68623 18.9996 5.99998Z" fill="#F79E1B"/>
</svg>
