<svg width="18" height="13" viewBox="0 0 18 13" fill="none" xmlns="http://www.w3.org/2000/svg">
<path d="M11.88 0.467222C5.67 -1.51278 0 3.07722 0 9.01722C0 9.82722 0.09 11.3572 0.36 12.2572C0.36 12.4372 0.54 12.6172 0.72 12.6172H17.19C17.37 12.6172 17.55 12.4372 17.64 12.2572C17.82 11.3572 18 9.82722 18 9.01722C18 5.14722 15.57 1.63722 11.88 0.467222ZM9 1.81722C9.54 1.81722 9.9 2.17722 9.9 2.71722C9.9 3.25722 9.54 3.61722 9 3.61722C8.46 3.61722 8.1 3.25722 8.1 2.71722C8.1 2.17722 8.46 1.81722 9 1.81722ZM2.7 9.91722C2.16 9.91722 1.8 9.55722 1.8 9.01722C1.8 8.47722 2.16 8.11722 2.7 8.11722C3.24 8.11722 3.6 8.47722 3.6 9.01722C3.6 9.55722 3.24 9.91722 2.7 9.91722ZM5.22 5.23722C4.86 5.59722 4.32 5.59722 3.96 5.23722C3.6 4.87722 3.6 4.24722 3.87 3.88722C4.23 3.52722 4.77 3.52722 5.13 3.88722C5.49 4.24722 5.49 4.87722 5.22 5.23722ZM9 10.8172C8.01 10.8172 7.11 9.91722 7.38 9.01722C7.65 8.11722 9 5.41722 9 5.41722C9 5.41722 10.35 8.11722 10.62 9.01722C10.89 9.91722 9.99 10.8172 9 10.8172ZM14.13 5.23722C13.77 5.59722 13.23 5.59722 12.87 5.23722C12.51 4.87722 12.51 4.33722 12.87 3.97722C13.23 3.61722 13.77 3.61722 14.13 3.97722C14.4 4.24722 14.4 4.87722 14.13 5.23722ZM15.3 9.91722C14.76 9.91722 14.4 9.55722 14.4 9.01722C14.4 8.47722 14.76 8.11722 15.3 8.11722C15.84 8.11722 16.2 8.47722 16.2 9.01722C16.2 9.55722 15.84 9.91722 15.3 9.91722Z" fill="white"/>
</svg>
