<svg width="24" height="25" viewBox="0 0 24 25" fill="none" xmlns="http://www.w3.org/2000/svg">
<path d="M12.0007 19.9072L0.88916 12.037V16.2345V23.3763C0.88916 24.2732 1.58347 25 2.44031 25H21.5602C22.4171 25 23.1114 24.2732 23.1114 23.3763V16.2345V12.037L12.0007 19.9072Z" fill="white"/>
<path d="M4.18285 12.6189L6.00891 13.8888V3.26206C6.00891 2.49797 6.61393 1.87633 7.35747 1.87633H16.6431C17.3867 1.87633 17.9916 2.49802 17.9916 3.26206V13.8888L19.8177 12.6189L22.3134 10.8836L23.1114 10.3288L19.8177 8.25353V3.26206C19.8177 1.46032 18.3965 -6.10352e-05 16.6431 -6.10352e-05H7.35747C5.60406 -6.10352e-05 4.18285 1.46032 4.18285 3.26206V8.25353L0.88916 10.3288L1.68671 10.8836L4.18285 12.6189Z" fill="white"/>
<path fill-rule="evenodd" clip-rule="evenodd" d="M9.34233 7.53698C8.83096 7.53698 8.41641 7.12242 8.41641 6.61105L8.41641 5.74486C8.41641 4.72211 9.24551 3.893 10.2683 3.893L13.972 3.893C14.9947 3.893 15.8238 4.72211 15.8238 5.74486L15.8238 6.61105C15.8238 7.12242 15.4093 7.53698 14.8979 7.53698C14.3865 7.53698 13.972 7.12242 13.972 6.61105L13.972 5.74486L10.2683 5.74486L10.2683 6.61105C10.2683 7.12242 9.85371 7.53698 9.34233 7.53698Z" fill="white"/>
<path fill-rule="evenodd" clip-rule="evenodd" d="M14.8979 19.0064C15.4093 19.0064 15.8238 19.4209 15.8238 19.9323L15.8238 20.7985C15.8238 21.8212 14.9947 22.6503 13.972 22.6503L10.2683 22.6503C9.24551 22.6503 8.41641 21.8212 8.41641 20.7985L8.41641 19.9323C8.41641 19.4209 8.83096 19.0064 9.34233 19.0064C9.85371 19.0064 10.2683 19.4209 10.2683 19.9323L10.2683 20.7985L13.972 20.7985L13.972 19.9323C13.972 19.4209 14.3865 19.0064 14.8979 19.0064Z" fill="white"/>
<path fill-rule="evenodd" clip-rule="evenodd" d="M14.2806 13.2717C14.2806 12.2068 13.371 11.2407 12.1201 11.2407C10.8692 11.2407 9.95958 12.2068 9.95958 13.2717C9.95958 14.3367 10.8692 15.3028 12.1201 15.3028C13.371 15.3028 14.2806 14.3367 14.2806 13.2717ZM16.1324 13.2717C16.1324 11.1273 14.336 9.38883 12.1201 9.38883C9.90411 9.38883 8.10773 11.1273 8.10773 13.2717C8.10773 15.4162 9.90412 17.1547 12.1201 17.1547C14.336 17.1547 16.1324 15.4162 16.1324 13.2717Z" fill="white"/>
</svg>
