<svg width="22" height="22" viewBox="0 0 22 22" fill="none" xmlns="http://www.w3.org/2000/svg">
<path d="M11.0003 0.000213623C4.92534 0.000213623 0.000488281 4.92522 0.000488281 11C0.000488281 17.0748 4.92534 22.0002 11.0003 22.0002C17.0753 22.0002 22.0005 17.0748 22.0005 11C22.0005 4.92522 17.0753 0.000213623 11.0003 0.000213623ZM15.7558 13.0922H11.0923C11.0766 13.0922 11.0619 13.0884 11.0463 13.0878C11.0307 13.0885 11.0161 13.0922 11.0002 13.0922C10.5801 13.0922 10.2395 12.7516 10.2395 12.3314V4.56522C10.2395 4.14508 10.5801 3.80444 11.0002 3.80444C11.4204 3.80444 11.761 4.14508 11.761 4.56522V11.5706H15.7555C16.1757 11.5706 16.5163 11.9113 16.5163 12.3314C16.5163 12.7516 16.176 13.0922 15.7558 13.0922Z" fill="white"/>
</svg>
