<svg width="26" height="17" viewBox="0 0 26 17" fill="none" xmlns="http://www.w3.org/2000/svg">
<path fill-rule="evenodd" clip-rule="evenodd" d="M1.99988 0.000213623C0.895309 0.000213623 -0.00012207 0.895644 -0.00012207 2.00021V15.0002C-0.00012207 16.1048 0.895308 17.0002 1.99988 17.0002H23.9999C25.1044 17.0002 25.9999 16.1048 25.9999 15.0002V2.00021C25.9999 0.895644 25.1044 0.000213623 23.9999 0.000213623H1.99988ZM12.9999 6.00021C13.5522 6.00021 13.9999 5.5525 13.9999 5.00021C13.9999 4.44793 13.5522 4.00021 12.9999 4.00021H4.99988C4.44759 4.00021 3.99988 4.44793 3.99988 5.00021C3.99988 5.5525 4.44759 6.00021 4.99988 6.00021H12.9999ZM9.99988 10.0002C10.5522 10.0002 10.9999 9.5525 10.9999 9.00021C10.9999 8.44793 10.5522 8.00021 9.99988 8.00021H4.99988C4.44759 8.00021 3.99988 8.44793 3.99988 9.00021C3.99988 9.5525 4.44759 10.0002 4.99988 10.0002H9.99988ZM17.9999 9.00021C17.9999 9.5525 17.5522 10.0002 16.9999 10.0002H13.9999C13.4476 10.0002 12.9999 9.5525 12.9999 9.00021C12.9999 8.44793 13.4476 8.00021 13.9999 8.00021H16.9999C17.5522 8.00021 17.9999 8.44793 17.9999 9.00021ZM17.9999 6.00021C18.5522 6.00021 18.9999 5.5525 18.9999 5.00021C18.9999 4.44793 18.5522 4.00021 17.9999 4.00021H16.9999C16.4476 4.00021 15.9999 4.44793 15.9999 5.00021C15.9999 5.5525 16.4476 6.00021 16.9999 6.00021H17.9999Z" fill="white"/>
</svg>
