<svg width="26" height="26" viewBox="0 0 26 26" fill="none" xmlns="http://www.w3.org/2000/svg">
<path fill-rule="evenodd" clip-rule="evenodd" d="M12.9999 25.944C20.1486 25.944 25.9438 20.1488 25.9438 13C25.9438 5.85124 20.1486 0.0560303 12.9999 0.0560303C5.85112 0.0560303 0.0559082 5.85124 0.0559082 13C0.0559082 20.1488 5.85112 25.944 12.9999 25.944ZM2.21369 16.5024C1.85374 15.3965 1.65917 14.2159 1.65917 12.9899C1.65917 11.7705 1.85162 10.5961 2.20781 9.49537H23.7912C24.1474 10.5961 24.3398 11.7705 24.3398 12.9899C24.3398 14.2159 24.1453 15.3965 23.7853 16.5024H2.21369ZM2.44759 17.1526H6.67179C6.93259 18.4189 7.40996 19.5257 7.98252 20.4755H4.48074C3.62417 19.5015 2.93199 18.3794 2.44759 17.1526ZM5.09951 21.1256H8.40492C8.89123 21.8224 9.41958 22.42 9.92874 22.9196C10.493 23.4732 11.036 23.909 11.477 24.2287C9.01233 23.898 6.79839 22.7756 5.09951 21.1256ZM12.6563 24.231L12.6265 24.2132C12.4991 24.1368 12.3143 24.0209 12.0889 23.8653C11.6376 23.5539 11.0251 23.0846 10.3841 22.4555C9.99205 22.0709 9.59059 21.6277 9.20909 21.1256H12.6563V24.231ZM12.6563 20.4755H8.75012C8.13823 19.5396 7.61895 18.4328 7.33654 17.1526H12.6563V20.4755ZM13.3064 17.1526V20.4755H17.2791C17.8924 19.5406 18.4139 18.4342 18.7008 17.1526H13.3064ZM19.366 17.1526H23.5514C23.067 18.3794 22.3748 19.5015 21.5182 20.4755H18.0474C18.6214 19.5265 19.101 18.42 19.366 17.1526ZM17.6237 21.1256H20.8994C19.2054 22.7708 16.9994 23.8915 14.5433 24.2259C14.9807 23.9103 15.5171 23.4821 16.075 22.939C16.5919 22.4357 17.1293 21.8319 17.6237 21.1256ZM13.3064 24.2589V21.1256H16.8186C16.4298 21.6358 16.0205 22.0847 15.6215 22.4731C14.9801 23.0975 14.3685 23.5624 13.9182 23.8706C13.6932 24.0246 13.509 24.1391 13.382 24.2146C13.354 24.2313 13.3287 24.2461 13.3064 24.2589ZM23.5585 8.84523H19.2637C19.0055 7.58098 18.5334 6.47388 17.9669 5.52229H21.5342C22.3876 6.49688 23.0768 7.61893 23.5585 8.84523ZM20.9181 4.87215H17.55C17.0632 4.16518 16.5335 3.55878 16.0233 3.0521C15.4707 2.50339 14.9388 2.06929 14.5043 1.7485C16.9851 2.07743 19.2127 3.20835 20.9181 4.87215ZM13.3064 1.72429L13.3386 1.74381C13.465 1.82093 13.6484 1.93782 13.8723 2.09464C14.3203 2.4085 14.9284 2.88107 15.5651 3.51342C15.9604 3.90595 16.3654 4.35875 16.7497 4.87215H13.3064V1.72429ZM13.3064 5.52229H17.2021C17.807 6.46032 18.3199 7.56742 18.5992 8.84523H13.3064V5.52229ZM12.6563 8.84523V5.52229H8.68019C8.06196 6.45927 7.53789 7.56604 7.25218 8.84523H12.6563ZM6.58707 8.84523H2.44045C2.92217 7.61893 3.61136 6.49688 4.46478 5.52229H7.91061C7.3325 6.47287 6.85085 7.57968 6.58707 8.84523ZM8.33669 4.87215H5.08082C6.77618 3.21809 8.98772 2.0907 11.451 1.75436C11.011 2.07076 10.4746 2.49704 9.91723 3.03501C9.38931 3.54457 8.84045 4.1565 8.33669 4.87215ZM12.6563 1.73999V4.87215H9.14329C9.54069 4.35368 9.9599 3.89742 10.3687 3.50278C11.0192 2.87495 11.6398 2.40666 12.097 2.09591C12.3254 1.94064 12.5125 1.82501 12.6414 1.74875L12.6563 1.73999ZM1.00903 12.9899C1.00903 19.6118 6.3774 24.9802 12.9994 24.9802C19.6214 24.9802 24.99 19.6118 24.99 12.9899C24.99 6.36776 19.6214 0.99939 12.9994 0.99939C6.3774 0.99939 1.00903 6.36777 1.00903 12.9899ZM4.90473 10.1083C4.08824 10.1257 3.37934 10.7269 3.38421 11.6867C3.38687 12.2131 3.77106 12.6354 4.16856 13.0722L4.2386 13.1493C4.42427 13.3542 4.57248 13.4902 4.68877 13.5969C4.97966 13.8639 5.07092 13.9477 5.04954 14.4671C5.03854 14.7332 4.59709 15.1488 4.12275 15.1477C3.41998 15.1464 2.92877 14.4718 3.12355 13.6561H2.92081L2.38501 15.5966H2.58775C2.64004 15.4208 2.9582 15.4141 3.14421 15.4102C3.16893 15.4096 3.19132 15.4092 3.21043 15.4084C3.33995 15.4029 3.44601 15.4437 3.5729 15.4926C3.74672 15.5595 3.95963 15.6414 4.32548 15.6401C5.19148 15.6368 6.04251 15.0704 6.03426 14.0182C6.03003 13.4722 5.69495 13.1012 5.25228 12.6714C4.57131 12.0106 4.30586 11.6946 4.42685 11.1654C4.52694 10.7275 4.83981 10.6047 5.15091 10.6006C5.73368 10.5932 5.98449 11.2076 6.06322 11.846H6.25148L6.72935 10.2241H6.52662C6.48216 10.4157 6.24785 10.4253 6.06322 10.4124C6.04575 10.4111 6.02987 10.4109 6.01381 10.4106C5.95344 10.4097 5.89047 10.4087 5.73015 10.3544C5.67367 10.3353 5.60868 10.309 5.5387 10.2806C5.34066 10.2004 5.10271 10.1041 4.90473 10.1083ZM6.94657 10.3255L6.88865 10.6441L6.90062 10.6441C7.21145 10.6454 7.32399 10.6458 7.32308 11.2378V15.5966C7.32308 15.5966 7.40745 15.7879 7.52582 15.5966C7.64426 15.4052 9.56766 12.2225 9.56766 12.2225V12.3239L9.55318 15.5966C9.55318 15.5966 9.67562 15.7879 9.79936 15.5966C9.91931 15.411 12.4201 11.2841 12.5725 11.0326L12.5797 11.0206C12.7009 10.803 12.7929 10.6515 13.1011 10.6441L13.1735 10.3255H11.5371L11.4792 10.6441C11.5459 10.6442 11.6086 10.6423 11.6663 10.6406H11.6663C11.9184 10.6332 12.0781 10.6284 12.0874 10.8034C12.0922 10.8935 12.0759 10.9659 12.015 11.0785L10.6682 13.2796L10.6393 13.2362V11.2378C10.6405 11.1479 10.641 11.0593 10.6393 10.9916C10.6304 10.6523 10.7236 10.6448 10.9868 10.6441L11.0447 10.3255H9.22011L9.16218 10.6441C9.43696 10.6515 9.55706 10.7312 9.55318 10.9771V11.426L8.3802 13.3231L8.33676 13.352V11.2233L8.3369 11.1566V11.1564C8.33707 11.0887 8.33728 11.009 8.33676 10.9482L8.33637 10.9264C8.33387 10.8102 8.3303 10.6447 8.64086 10.6441L8.72775 10.3255H6.94657ZM13.4196 10.3255L13.3617 10.6441C13.5113 10.6363 13.6639 10.6928 13.6803 10.8613C13.6853 10.9137 13.6646 10.9837 13.6392 11.0695C13.6291 11.1038 13.6182 11.1406 13.6079 11.1799L12.6087 14.9015C12.5497 15.1487 12.2524 15.2811 11.8557 15.278L11.7978 15.5966H13.9265L13.9989 15.278C13.6411 15.2708 13.6452 15.1762 13.6506 15.0512L13.6513 15.0318C13.6533 14.9755 13.6723 14.9221 13.6932 14.8632C13.7035 14.8342 13.7143 14.8039 13.7237 14.7712L14.7374 11.0351C14.8417 10.6856 15.0931 10.6518 15.476 10.6441L15.5484 10.3255H13.4196ZM15.838 10.3255L15.7656 10.6441C15.7913 10.646 15.8179 10.6478 15.845 10.6496C16.152 10.6699 16.5236 10.6946 16.4172 11.0351C16.4053 11.0734 16.4052 11.0853 16.4051 11.1009C16.405 11.1183 16.4049 11.1404 16.3883 11.2088L15.418 14.8291C15.3426 15.1652 15.1075 15.2704 14.8243 15.278L14.7374 15.5966H16.9965L17.0834 15.278C16.5893 15.2768 16.3895 15.2106 16.4896 14.8291L16.5043 14.7741C16.5264 14.6917 16.5564 14.5797 16.5765 14.4816L17.0399 12.8886H17.1413C17.5829 12.887 17.7075 12.9419 17.7205 13.1783C17.7241 13.244 17.7253 13.3044 17.7264 13.3589L17.7264 13.359C17.7279 13.4301 17.7291 13.491 17.735 13.5403H17.9812L18.3577 11.9908L18.155 11.9618C17.9461 12.4956 17.5008 12.5031 17.344 12.4976H17.1413L17.4599 11.2233C17.591 10.7776 17.6383 10.7773 17.9418 10.7749L17.9957 10.7744C18.6094 10.7671 18.9737 10.8677 18.9225 11.7301H19.1252L19.5017 10.3255H15.838ZM19.7913 10.3255L19.4004 11.7301H19.6321L19.6584 11.638C19.7473 11.3257 19.7676 11.2544 19.9796 11.064C20.2172 10.8563 20.4725 10.7744 20.8774 10.7744L19.8203 14.6409C19.748 15.2643 19.3929 15.2702 18.9401 15.2777L18.9225 15.278L18.8501 15.5966H21.2395L21.2974 15.307C20.9916 15.3353 20.8034 15.1343 20.8629 14.9015C20.8715 14.8682 20.8826 14.8288 20.8952 14.7846C20.9164 14.71 20.9415 14.6216 20.9643 14.525L21.949 10.7744C22.6991 10.7739 22.8494 11.0751 22.8034 11.7301H23.0206L23.3972 10.3255H19.7913ZM10.7406 15.0029C10.6151 15.0025 10.4832 15.1591 10.451 15.3504C10.4188 15.5418 10.4993 15.6976 10.6248 15.698C10.7501 15.6985 10.8822 15.5418 10.9144 15.3504C10.9466 15.1593 10.866 15.0034 10.7406 15.0029ZM14.4478 15.0029C14.3224 15.0025 14.1903 15.1591 14.1582 15.3504C14.1259 15.5418 14.2065 15.6976 14.332 15.698C14.4574 15.6985 14.5894 15.5418 14.6216 15.3504C14.6539 15.1593 14.5732 15.0034 14.4478 15.0029ZM17.6337 15.0029C17.5082 15.0025 17.3762 15.1591 17.344 15.3504C17.3117 15.5418 17.3779 15.6976 17.5033 15.698C17.6287 15.6985 17.7608 15.5418 17.7929 15.3504C17.8252 15.1593 17.7591 15.0034 17.6337 15.0029ZM6.22251 15.0174C6.09717 15.0168 5.97955 15.1736 5.94737 15.3649C5.91514 15.5562 5.98132 15.7119 6.10666 15.7125C6.2321 15.713 6.36412 15.5562 6.39629 15.3649C6.42854 15.1736 6.34795 15.0179 6.22251 15.0174ZM21.8911 15.0174C21.7657 15.0169 21.6336 15.1736 21.6015 15.3649C21.5692 15.5563 21.6498 15.712 21.7753 15.7125C21.9007 15.713 22.0327 15.5562 22.0649 15.3649C22.0972 15.1737 22.0165 15.0179 21.8911 15.0174Z" fill="white"/>
</svg>
