<svg width="29" height="25" viewBox="0 0 29 25" fill="none" xmlns="http://www.w3.org/2000/svg">
<path fill-rule="evenodd" clip-rule="evenodd" d="M12.9869 24.9785C15.4848 24.9785 17.8042 24.2148 19.7246 22.9082C18.7157 22.6249 17.9759 21.6982 17.9759 20.5988C17.9759 19.2742 19.0497 18.2004 20.3743 18.2004H22.5673C22.1018 17.2979 22.2473 16.1618 23.0038 15.4053C23.5119 14.8972 24.1913 14.6647 24.8562 14.708C24.937 14.1458 24.9788 13.5711 24.9788 12.9866C24.9788 6.3636 19.6099 0.994629 12.9869 0.994629C6.36396 0.994629 0.994995 6.3636 0.994995 12.9866C0.994995 19.6095 6.36396 24.9785 12.9869 24.9785ZM16.9398 12.4049L11.6816 19.0801C11.2834 19.5954 10.6276 19.2616 10.8618 18.6351L12.4955 14.2728H9.31012C9.05834 14.2728 8.87682 14.0971 8.87682 13.857C8.87682 13.7224 8.92952 13.6053 9.02906 13.4764L14.2872 6.80125C14.6854 6.29183 15.3412 6.61973 15.107 7.24626L13.4733 11.6086H16.6587C16.9105 11.6086 17.092 11.7842 17.092 12.0243C17.092 12.159 17.0393 12.2761 16.9398 12.4049Z" fill="white"/>
<path d="M27.371 21.3983C27.8126 21.3983 28.1705 21.0403 28.1705 20.5988C28.1705 20.1573 27.8126 19.7994 27.371 19.7994L27.371 21.3983ZM20.3743 19.7994C19.9327 19.7994 19.5748 20.1573 19.5748 20.5988C19.5748 21.0403 19.9327 21.3983 20.3743 21.3983L20.3743 19.7994ZM27.371 19.7994L20.3743 19.7994L20.3743 21.3983L27.371 21.3983L27.371 19.7994Z" fill="white"/>
<path d="M24.6997 17.1013L28.1981 20.5996L24.6997 24.098" stroke="white" stroke-width="1.59892" stroke-linecap="round" stroke-linejoin="round"/>
</svg>
